<svg xmlns="http://www.w3.org/2000/svg" viewBox="0 0 96 96" width="96" height="96">
  <defs>
    <linearGradient id="badge" x1="0" y1="0" x2="1" y2="1">
      <stop offset="0" stop-color="#29b3ef"/>
      <stop offset="1" stop-color="#1173a8"/>
    </linearGradient>
    <linearGradient id="trail" x1="0" y1="1" x2="1" y2="0">
      <stop offset="0" stop-color="#6fdb67"/>
      <stop offset="1" stop-color="#3fa03a"/>
    </linearGradient>
  </defs>

  <rect x="4" y="4" width="88" height="88" rx="24" fill="url(#badge)"/>
  <rect x="4" y="4" width="88" height="88" rx="24" fill="none" stroke="#ffffff" stroke-opacity=".18" stroke-width="2"/>

  <rect x="20" y="60" width="9" height="17" rx="3" fill="#fff" opacity=".38"/>
  <rect x="33" y="50" width="9" height="27" rx="3" fill="#fff" opacity=".5"/>
  <rect x="46" y="39" width="9" height="38" rx="3" fill="#fff" opacity=".62"/>

  <path d="M16 80 Q38 73 55 46" fill="none" stroke="url(#trail)" stroke-width="5.5" stroke-linecap="round"/>

  <path d="M80 16 L31 38 L52 44 Z" fill="#ffffff"/>
  <path d="M80 16 L52 44 L54 60 L62 48 Z" fill="#dcf1fc"/>
  <path d="M80 16 L52 44 L62 48 Z" fill="#b8e4fa"/>
</svg>
